<?xml version="1.0" ?><!-- Uploaded to: SVG Repo, www.svgrepo.com, Generator: SVG Repo Mixer Tools -->
<svg width="800px" height="800px" viewBox="0 0 24 24" fill="none" xmlns="http://www.w3.org/2000/svg"><path d="M3 3L6 3M3 21L6 21M6 21L10 21C11.1046 21 12 20.1046 12 19L12 9M6 21L6 9M6 3L10 3C11.1046 3 12 3.89543 12 5L12 9M6 3L6 9M3 9L6 9M6 9L12 9M3 15L6 15L12 15" stroke="#000000" stroke-linecap="round" stroke-linejoin="round" stroke-width="2"/><path d="M15 12L18 12M18 12L21 12M18 12L18 15M18 12L18 9" stroke="#000000" stroke-linecap="round" stroke-linejoin="round" stroke-width="2"/></svg>