<svg version="1.1" xmlns="http://www.w3.org/2000/svg" viewBox="0 0 226.94021294540744 101.50458292278779" width="680.8206388362223" height="304.51374876836337">
  <!-- svg-source:excalidraw -->
  
  <defs>
    <style class="style-fonts">
      @font-face {
        font-family: "Virgil";
        src: url("https://excalidraw.com/Virgil.woff2");
      }
      @font-face {
        font-family: "Cascadia";
        src: url("https://excalidraw.com/Cascadia.woff2");
      }
    </style>
  </defs>
  <g stroke-linecap="round"><g transform="translate(126.82936502272344 54.68415775941128) rotate(344.3012132604193 -17.098662911400766 -7.386393371328836)"><path d="M0.22 1.35 C7.65 14.68, 8.01 24.15, 14.4 31.32 M-1.75 -1.33 C4.79 6.13, 7 13.44, 10.63 27.19 M7.82 29.45 C1.55 19.75, -9.4 16.6, -16.18 9.31 M8.6 29.04 C4.63 24.19, -1.1 22.53, -15.96 10.08 M-17.7 12.6 C-22.68 13.85, -30.97 25, -44.51 30.17 M-14.2 11.86 C-25.48 15.28, -32.69 21.42, -44.49 30.83 M-45.11 27.68 C-37.13 21.26, -41.36 13.67, -33.18 -3.33 M-40.63 27.54 C-36.86 17.71, -36.64 8.73, -30.46 -1.6 M-31.44 -3.12 C-38.95 -7.44, -47.23 -9.04, -62.2 -21.28 M-31.48 1.8 C-42.42 -7.4, -53.57 -12.09, -59.59 -18.45 M-57.16 -16.44 C-50.97 -16.76, -33.46 -13.96, -23.38 -15.08 M-58.73 -18.82 C-49.81 -17.56, -39.99 -19.77, -27.65 -15.97 M-28.48 -20.23 C-23.29 -23.06, -20.23 -33.84, -19.04 -43.7 M-25.47 -15.76 C-22.36 -29.23, -16.94 -39.16, -16.98 -46.1 M-12.18 -44.05 C-10.73 -35.26, -11.2 -28.75, -5.07 -17.02 M-14.28 -45.19 C-12.87 -36.95, -11.94 -28.27, -5.04 -16.11 M-6.59 -18.33 C4.67 -17.63, 16.45 -13.49, 23.16 -16.7 M-7.92 -17.62 C1.64 -16.16, 10.47 -16.15, 28.01 -17.92 M24.49 -15.29 C17.29 -13.68, 13.08 -3.92, -3.12 1.23 M27.16 -19.16 C19.36 -13.68, 8.41 -7.11, -0.27 0.97" stroke="#f08c00" stroke-width="4" fill="none"></path></g></g><mask></mask><g stroke-opacity="0.8" fill-opacity="0.8" transform="translate(12.094061245652938 29.153559880672276) rotate(352.3428132815359 101.37604522705078 22.5)"><text x="0" y="0" font-family="Virgil, Segoe UI Emoji" font-size="36px" fill="#1e1e1e" text-anchor="start" style="white-space: pre;" direction="ltr" dominant-baseline="text-before-edge">SparkBoard</text></g></svg>